<svg width="74" height="83" viewBox="0 0 74 83" fill="none" xmlns="http://www.w3.org/2000/svg">
<path d="M68.12 58.0271C68.685 58.043 69.0956 57.6841 69.536 57.4171C71.01 56.5224 72.5454 55.7462 73.9982 55C73.9982 56.5542 73.9965 58.1067 74 59.6592C74 59.8501 74 60 74 60L73.7929 60.9747C73.7929 60.9747 73.8824 61.27 73.8456 61.4132C73.4508 62.9144 72.7015 64.1804 71.3416 64.9779C69.3781 66.1272 67.3865 67.2288 65.416 68.3657C63.7192 69.3435 62.0751 70.4274 60.3291 71.3062C58.8289 72.063 57.4602 73.0532 55.9003 73.7003C54.7474 74.1777 53.7332 74.0823 52.6646 73.4316C50.3677 72.0329 47.9725 70.8129 45.5967 69.5592C43.2401 68.3162 40.9081 67.0237 38.6112 65.6763C37.7935 65.1954 37.8251 65.1759 38.534 64.4828C39.5991 63.4431 40.5677 62.3008 41.5468 61.1763C41.9065 60.7643 42.3347 60.4106 42.6154 59.9244C42.7786 59.6433 43.0874 59.6503 43.3735 59.6521C43.8823 59.6768 44.2298 60.149 44.7456 60.1543L44.7281 60.1437C45.5686 60.8332 46.567 61.2541 47.511 61.7615C47.8988 61.9702 48.2305 62.3486 48.7376 62.2885C49.8518 62.7234 50.8327 63.4201 51.9048 63.9329C52.7401 64.3325 54.3351 65.259 54.3351 65.259C54.3351 65.259 54.4876 65.4103 54.6018 65.4853C55.4097 66.0164 56.5144 64.9584 56.8215 64.3891C56.8215 64.3891 56.8183 64.3934 56.8162 64.3961C56.6763 64.5867 57.541 63.9733 57.3532 64.1168C57.3477 64.1209 57.3391 64.1274 57.3391 64.1274C57.3391 64.1274 57.9164 63.9594 58.1989 63.8445C59.1921 63.4431 60.0133 62.7234 60.9714 62.2832C62.7225 61.4786 64.3176 60.4018 66.0038 59.4877C66.7513 59.0827 67.6252 58.791 68.1498 58.0254L68.12 58.0271Z" fill="#38CB89"/>
<path fill-rule="evenodd" clip-rule="evenodd" d="M34.9756 55.3792C34.6521 53.5872 33.5953 52.2741 31.957 51.4488C31.957 51.4491 31.9569 51.4495 31.9569 51.4498L31.9553 51.447C31.9551 51.4488 31.9549 51.4507 31.9547 51.4525C31.9335 51.4336 31.9125 51.4146 31.8916 51.3957C31.8682 51.3745 31.8448 51.3533 31.821 51.3321C31.7936 51.3133 31.7628 51.311 31.7319 51.3238C30.6107 50.5158 29.3381 50.5865 28.0707 50.7365C27.6377 50.7878 27.2507 50.8037 26.8601 50.5934C25.958 50.1096 25.0542 49.6293 24.1506 49.149L24.1502 49.1488L24.1497 49.1485L24.1494 49.1484C22.7063 48.3814 21.2635 47.6145 19.8281 46.8343C18.044 45.8659 16.2638 44.8902 14.4836 43.9146C12.6223 42.8945 10.761 41.8744 8.89557 40.8626C8.49086 40.6435 8.24343 40.4473 8.2505 39.9295C8.2694 38.6231 8.27264 37.3168 8.27588 36.0104V36.0101C8.2787 34.8724 8.28152 33.7347 8.29469 32.597C8.29617 32.4324 8.28825 32.2669 8.28033 32.1012C8.25993 31.6744 8.23947 31.2465 8.37952 30.8315C8.3939 30.8308 8.40683 30.829 8.41822 30.8273C8.43762 30.8245 8.45256 30.8224 8.46258 30.8279C9.52913 31.4163 10.5958 32.004 11.6624 32.5917L11.6646 32.5929L11.6667 32.5941C14.2961 34.0429 16.9251 35.4915 19.5506 36.9481C21.6359 38.1053 23.7183 39.2671 25.8005 40.4289C27.62 41.444 29.4394 42.4591 31.2607 43.4712C32.7322 44.2899 34.2092 45.0995 35.6864 45.9091L35.6871 45.9095C36.2535 46.2199 36.82 46.5304 37.3862 46.8414L37.3807 46.8309L37.3791 46.8273C37.9455 46.8529 38.4079 47.1294 38.8673 47.4042C39.0414 47.5083 39.2151 47.6122 39.3938 47.7021C40.5123 48.2646 41.5935 48.8944 42.675 49.5243C43.6594 50.0978 44.644 50.6713 45.6571 51.1943C46.65 51.7072 47.6138 52.2777 48.5772 52.8479L48.5774 52.848L48.5782 52.8485C48.9554 53.0718 49.3325 53.295 49.7113 53.5147C49.7547 53.54 49.7816 53.5957 49.8084 53.651L49.8084 53.6511C49.8193 53.6737 49.8302 53.6961 49.8422 53.7164L49.8368 53.7162L49.8474 53.725L49.8422 53.7164C50.2633 53.7358 50.5997 53.9467 50.9357 54.1572L50.9357 54.1572C51.0994 54.2598 51.263 54.3623 51.4362 54.4426C51.9617 54.6864 52.4673 54.9744 52.9724 55.2622L52.9728 55.2623C53.1742 55.3771 53.3756 55.4918 53.5781 55.6037C54.1242 55.9059 54.5908 55.6938 55.0521 55.3951C55.1963 55.3013 55.3329 55.1947 55.4696 55.088L55.4697 55.0879C55.7767 54.8482 56.084 54.6083 56.4791 54.513L56.4783 54.5185L56.4853 54.5115L56.4791 54.513C56.5028 54.353 56.587 54.2602 56.7559 54.2638L56.7522 54.2676L56.7646 54.2641L56.7559 54.2638C56.8188 54.1997 56.8791 54.1322 56.9394 54.0647C57.1788 53.7967 57.4179 53.529 57.8147 53.4737L57.8126 53.4758L57.825 53.4723L57.8147 53.4737C58.3935 52.8708 59.0756 52.4078 59.7981 51.9976L59.7937 52.009L59.8061 51.9931L59.7981 51.9976C59.9023 51.7312 60.1187 51.5687 60.3319 51.4086L60.332 51.4086C60.4067 51.3525 60.4811 51.2966 60.5501 51.2367C60.923 50.9133 60.7887 50.7595 60.4406 50.5881C60.3335 50.535 60.2211 50.4905 60.1087 50.4461C59.7983 50.3232 59.4876 50.2002 59.2865 49.8953C59.1504 49.8387 59.0126 49.7822 58.8765 49.7256C57.9388 49.3461 57.0646 48.848 56.1906 48.35C55.811 48.1337 55.4315 47.9175 55.0468 47.7109C54.5795 47.4602 54.1104 47.2125 53.6413 46.9648L53.6404 46.9642C52.582 46.4054 51.5235 45.8464 50.4854 45.2526C49.7702 44.843 48.4141 43.9678 48.2799 43.8811L48.2816 43.8812L48.2692 43.8741L48.2799 43.8811C47.3998 43.8163 46.0618 42.8067 46.0618 42.8067C46.0618 42.8067 40.5001 40 39.6536 39.3339C39.3592 39.1023 39.2382 38.9914 39.1558 38.9159C39.0013 38.7743 38.9826 38.7572 38.2115 38.3018L38.2025 38.2965C38.2119 38.2927 38.2214 38.2885 38.2309 38.2842C38.2144 38.1667 38.1312 38.1205 38.0381 38.0687L38.0189 38.0579C36.6797 37.3129 35.3414 36.5662 34.0031 35.8195L34.0017 35.8187L33.9966 35.8159L33.9959 35.8155C31.9366 34.6665 29.8771 33.5175 27.8145 32.3743C25.5023 31.0933 23.1875 29.8178 20.8729 28.5424L20.8708 28.5412C19.2905 27.6705 17.7102 26.7997 16.1309 25.9272C15.1305 25.3747 14.1337 24.8156 13.1367 24.2565L13.1367 24.2565L13.1367 24.2565C11.0214 23.0703 8.90602 21.8839 6.75714 20.7596C3.72092 19.1708 0.18633 21.357 0.136845 24.8032C0.0785245 28.8645 0.0537824 32.9275 0.0484805 36.9887C0.0454061 39.1777 0.0350523 41.3666 0.0246983 43.5557C-0.000659578 48.9167 -0.0260186 54.278 0.0555499 59.6402C0.101486 62.6048 1.59573 64.7075 4.08274 65.83L4.08329 65.8346L4.10097 65.8169C4.30951 65.7126 4.66297 65.9035 4.66297 65.9035C4.66297 65.9035 8.11273 67.7468 9.8058 68.7294C10.6541 69.2218 11.519 69.6831 12.3839 70.1442L12.3847 70.1447C12.6835 70.304 12.9822 70.4633 13.2803 70.6239C13.3037 70.6365 13.3275 70.6485 13.3513 70.6606L13.3513 70.6606L13.3514 70.6606C13.5236 70.7477 13.6914 70.8327 13.6576 71.0844L13.6514 71.0834L13.6567 71.0905L13.6576 71.0844C14.3457 71.1956 14.9198 71.5511 15.4917 71.9051C15.7193 72.046 15.9465 72.1867 16.1804 72.3117C17.8722 73.2159 19.5415 74.1619 21.2108 75.1079L21.2133 75.1093L21.2148 75.1101C21.7432 75.4096 22.2716 75.709 22.8007 76.0071L22.833 76.0253C23.0303 76.136 23.2354 76.2512 23.3309 76.4807C23.5147 76.502 23.6543 76.6009 23.7993 76.707C24.8814 77.4904 26.0578 78.1115 27.2341 78.7325C27.6101 78.9309 27.986 79.1294 28.3589 79.3332C30.1138 80.2928 31.867 81.256 33.5848 82.2863C34.5232 82.8483 35.5924 83.1947 36.7429 82.8819C37.1641 82.7677 37.5206 82.5375 37.874 82.3093L37.874 82.3093L37.874 82.3093C38.0841 82.1736 38.293 82.0387 38.5138 81.9293C38.7301 81.8223 38.9474 81.7168 39.1647 81.6113L39.1654 81.611C39.9168 81.2462 40.6684 80.8812 41.3839 80.4536C41.6293 80.3068 41.8858 80.1775 42.1425 80.0482C42.6674 79.7836 43.1927 79.5189 43.6248 79.1034C43.8422 78.7358 43.7273 78.545 43.3456 78.3488C41.269 77.2778 39.2065 76.1803 37.1476 75.0758C37.1107 75.0561 37.0717 75.0376 37.0322 75.0188L37.0321 75.0188L37.0321 75.0187C36.8606 74.9372 36.6782 74.8504 36.5998 74.6469L36.6139 74.6481L36.5962 74.6375L36.5998 74.6469C36.2072 74.6138 35.8807 74.4179 35.5584 74.2246C35.4365 74.1515 35.3153 74.0788 35.1912 74.0154C34.011 73.4089 32.8528 72.7628 31.6939 72.1163C31.3466 71.9225 30.9991 71.7286 30.6511 71.5359C30.6058 71.5097 30.575 71.4578 30.544 71.4056C30.5308 71.3833 30.5175 71.361 30.5031 71.3406L30.5097 71.3397L30.5072 71.3382L30.5096 71.3379C30.4262 71.1495 30.2577 71.0718 30.0923 70.9955C30.0405 70.9716 29.989 70.9478 29.9405 70.9208C29.2142 70.5163 28.4854 70.1167 27.7565 69.7172L27.7552 69.7164C27.1153 69.3656 26.4753 69.0148 25.8369 68.6605C22.32 66.7094 18.8048 64.7565 15.2914 62.8001C14.2449 62.2174 13.2003 61.631 12.1558 61.0447L12.1539 61.0436L12.1527 61.0429C11.1645 60.4881 10.1765 59.9335 9.18717 59.3821C8.65168 59.0835 8.4343 58.6611 8.43784 58.0337C8.44766 56.3474 8.43617 54.6611 8.42468 52.9748L8.42467 52.9736C8.41962 52.2321 8.41457 51.4905 8.41133 50.7489C8.40956 50.0349 8.58452 49.9236 9.24196 50.2682C10.9739 51.1766 12.7023 52.0903 14.4219 53.0216C16.1515 53.958 17.8772 54.9001 19.603 55.8422C20.7533 56.4702 21.9037 57.0981 23.0551 57.7244C23.4899 57.9612 23.8133 58.2528 24.0325 58.7353C24.6758 60.1562 25.7998 61.1636 27.1694 61.8369C28.502 62.4908 29.96 62.6004 31.3455 62.049C34.0972 60.9533 35.4951 58.267 34.9756 55.3792ZM30.5031 71.3406C30.3433 71.361 30.2103 71.2981 30.073 71.2332C30.052 71.2233 30.0309 71.2133 30.0095 71.2036C28.9491 70.7185 27.933 70.1486 26.9168 69.5787L26.9165 69.5785L26.9162 69.5784C26.3592 69.266 25.8022 68.9536 25.2378 68.6552C23.1666 67.56 21.1277 66.4053 19.0888 65.2506L19.0887 65.2505L19.0885 65.2505C17.8898 64.5716 16.6911 63.8928 15.4859 63.226C13.9658 62.3848 12.433 61.5676 10.9003 60.7505L10.9001 60.7504L10.8999 60.7503C10.2302 60.3933 9.5606 60.0363 8.89211 59.6773L8.89303 59.6761C9.60377 60.0583 10.3158 60.4381 11.0278 60.8179C12.5179 61.6128 14.0079 62.4076 15.4858 63.2243C16.7182 63.905 17.9435 64.5988 19.1687 65.2927L19.1689 65.2928C21.1818 66.4326 23.1944 67.5724 25.2378 68.6534C25.8023 68.9519 26.3595 69.2644 26.9167 69.5769C27.9329 70.1468 28.9491 70.7167 30.0095 71.2018C30.0308 71.2116 30.0519 71.2215 30.0729 71.2315C30.2099 71.2962 30.3426 71.3589 30.5019 71.3389L30.5031 71.3406ZM30.3429 51.0952C30.3274 51.0924 30.312 51.0896 30.2966 51.0867L30.2962 51.0867C30.1324 51.0569 29.9685 51.027 29.8042 51.0036C29.9614 51.0263 30.1182 51.0546 30.2749 51.0829C30.2976 51.087 30.3202 51.0911 30.3429 51.0952ZM27.5131 51.0635C27.0984 50.9996 26.6957 50.8493 26.2911 50.6234C25.3637 50.1055 24.4143 49.6263 23.4653 49.1473C23.0737 48.9496 22.6821 48.752 22.2921 48.5516C22.2924 48.5524 22.2927 48.5532 22.293 48.5539C22.6832 48.7543 23.0751 48.9519 23.4671 49.1495C24.4137 49.6266 25.3607 50.104 26.284 50.6217C26.6909 50.8489 27.0959 51 27.5131 51.0635ZM21.7758 51.3343C21.7326 51.3237 21.6873 51.3085 21.6396 51.2879C21.6342 51.2857 21.629 51.2838 21.6237 51.2823C21.6312 51.284 21.6389 51.2864 21.6466 51.2897C21.6918 51.3091 21.7347 51.3238 21.7758 51.3343ZM32.0158 51.6845C31.9706 51.6274 31.9446 51.5549 31.9547 51.4525C31.9553 51.4531 31.9559 51.4536 31.9565 51.4541C31.9464 51.5556 31.9715 51.6277 32.0158 51.6845ZM32.1994 51.8288C32.2051 51.8322 32.2108 51.8356 32.2165 51.8391C32.262 51.8663 32.3079 51.8938 32.3494 51.9259C33.6342 52.9563 34.5868 54.1845 34.8801 55.8705C35.4686 59.2478 32.0153 62.71 28.6628 62.0402C28.3806 61.9837 28.0891 61.9173 27.8136 61.8061C28.0865 61.9152 28.3748 61.9808 28.654 62.0366C32.0065 62.7064 35.4598 59.2443 34.8713 55.867C34.578 54.1792 33.6254 52.9527 32.3406 51.9224C32.3004 51.8903 32.2552 51.8628 32.2103 51.8354C32.2066 51.8332 32.203 51.831 32.1994 51.8288ZM27.3211 61.5387C27.3177 61.5362 27.3143 61.5337 27.3108 61.5312C27.3108 61.5323 27.3129 61.5348 27.3145 61.5365C27.3167 61.5372 27.3189 61.538 27.3211 61.5387ZM15.8893 52.368C16.2093 52.4502 16.3379 52.7174 16.4675 52.9865C16.5215 53.0986 16.5757 53.2111 16.6439 53.3106C16.6426 53.3115 16.6412 53.3124 16.6399 53.3133C16.5709 53.2134 16.5164 53.0998 16.462 52.9864C16.3336 52.719 16.2057 52.4525 15.8893 52.368ZM17.0315 52.9694C17.0321 53.0666 17.0327 53.1642 17.1494 53.1938C17.0257 53.1671 17.0251 53.0676 17.0245 52.9682C17.0239 52.8721 17.0233 52.7761 16.9115 52.746C17.0303 52.7739 17.0309 52.8715 17.0315 52.9694ZM36.4014 46.0007C36.7325 46.183 37.0739 46.371 37.2969 46.6936C37.0748 46.3749 36.7387 46.1887 36.4109 46.0071L36.4106 46.0069C36.3757 45.9876 36.3409 45.9683 36.3063 45.9489C35.5664 45.5341 34.8219 45.127 34.0775 44.7198C32.8554 44.0514 31.6334 43.383 30.4318 42.6812C30.0421 42.4541 29.649 42.2346 29.256 42.0151C29.077 41.9151 28.898 41.8151 28.7193 41.7145C28.6725 41.6879 28.616 41.6633 28.5576 41.6378L28.5576 41.6378C28.4468 41.5895 28.329 41.5381 28.257 41.4648C28.3292 41.5372 28.4459 41.5881 28.5558 41.636L28.5559 41.636C28.6143 41.6615 28.6707 41.6862 28.7176 41.7127C28.8961 41.8133 29.0749 41.9132 29.2538 42.0131L29.2541 42.0133C29.6472 42.2328 30.0403 42.4524 30.4301 42.6794C31.6338 43.383 32.8567 44.0517 34.0796 44.7203L34.08 44.7206C34.823 45.1268 35.5659 45.5331 36.3046 45.9472C36.3367 45.965 36.369 45.9828 36.4014 46.0007ZM34.4587 38.9554C34.4338 38.9303 34.4087 38.9033 34.3834 38.8745L34.3835 38.8744C34.4088 38.9033 34.4338 38.9303 34.4587 38.9554ZM36.4027 37.9383C36.5715 37.9165 36.7434 37.8944 36.8256 37.9787C36.7428 37.8965 36.5721 37.9185 36.4045 37.94L36.3947 37.9413C36.2471 37.9602 36.1597 37.9349 36.1052 37.8793C36.1598 37.9337 36.2469 37.9583 36.393 37.9395L36.4027 37.9383ZM8.89203 59.6755L8.8909 59.6748C8.83405 59.7306 8.77136 59.7846 8.70869 59.8386L8.70866 59.8386C8.56118 59.9656 8.41375 60.0926 8.34238 60.2432C8.41437 60.0941 8.56066 59.9681 8.70699 59.8421C8.77072 59.7872 8.83443 59.7323 8.89203 59.6755ZM8.44446 61.1066L8.44438 61.1067C8.42768 61.1352 8.4115 61.1628 8.39896 61.1866L8.39306 61.1981L8.39726 61.1901C8.40968 61.1666 8.42566 61.1392 8.44218 61.1109L8.44234 61.1106C8.44922 61.0988 8.45619 61.0868 8.46303 61.075C8.46736 61.0674 8.47165 61.0599 8.47583 61.0525C8.46568 61.0704 8.45497 61.0886 8.44446 61.1066ZM8.85138 61.381C8.87786 61.3257 8.88279 61.2488 8.88769 61.1722C8.89127 61.1163 8.89484 61.0607 8.90675 61.0138C8.8942 61.061 8.89056 61.1175 8.88691 61.1743C8.88204 61.2499 8.87713 61.326 8.85116 61.3814L8.85138 61.381ZM9.38311 62.3474C9.30321 62.4732 9.06278 62.4689 8.82514 62.4647L8.80543 62.4643C8.63365 62.4612 8.46319 62.4409 8.29291 62.4205L8.21516 62.4113C8.1717 62.4059 8.1271 62.3877 8.08259 62.3695C7.9805 62.3278 7.87893 62.2862 7.79277 62.4007C7.78213 62.415 7.77371 62.4291 7.76725 62.4431C7.77345 62.4303 7.78132 62.4173 7.79108 62.4042C7.87778 62.2891 7.98009 62.331 8.08283 62.373L8.08286 62.3731C8.12672 62.391 8.17064 62.409 8.21346 62.4148C8.40964 62.4396 8.60757 62.4643 8.80374 62.4678L8.82324 62.4682C9.06215 62.4725 9.30514 62.4769 9.38311 62.3474ZM7.98717 63.3676C7.95007 63.4437 7.87738 63.4961 7.75743 63.5053C7.64023 63.5139 7.52082 63.5381 7.40004 63.5625L7.39999 63.5625C7.07637 63.6281 6.74293 63.6956 6.41605 63.4717C6.23402 63.348 5.97423 63.3356 5.76568 63.5L5.76637 63.5016C5.97276 63.341 6.23302 63.352 6.41436 63.4752C6.74142 63.698 7.07505 63.6308 7.39884 63.5657C7.51945 63.5414 7.6387 63.5174 7.75574 63.5088C7.87754 63.4995 7.95061 63.4456 7.98717 63.3676ZM6.25699 63.8971C6.23726 63.9378 6.20257 63.9867 6.14919 64.046C5.91944 64.3005 5.57305 64.6151 5.10118 64.403C4.89333 64.3108 4.59487 64.252 4.49529 64.5041C4.59773 64.2559 4.89428 64.3131 5.09949 64.4066C5.57313 64.6187 5.91952 64.3058 6.1475 64.0496C6.20244 63.9885 6.23758 63.9385 6.25699 63.8971ZM5.19975 65.2219C5.18505 65.2518 5.16158 65.2794 5.12946 65.3044C4.94212 65.451 4.07262 65.2938 3.97011 65.0923C3.68558 64.5356 3.40988 64.4331 2.76305 64.6505L2.76453 64.6529C3.40733 64.4352 3.68435 64.54 3.96842 65.0958C4.07092 65.2973 4.94043 65.4546 5.12777 65.3079C5.16114 65.2819 5.18518 65.2532 5.19975 65.2219Z" fill="#38CB89"/>
<path fill-rule="evenodd" clip-rule="evenodd" d="M57.6588 19.5473C57.6588 19.5473 57.6588 19.5473 57.6588 19.5473C57.66 19.5429 57.6611 19.5386 57.6621 19.5344L57.6623 19.5337C57.9039 19.6743 58.1448 19.8163 58.3856 19.9583L58.3866 19.9589L58.3867 19.959C58.8972 20.2599 59.4076 20.5609 59.9245 20.848C60.6475 21.2512 61.3727 21.6507 62.0978 22.0502L62.098 22.0503L62.0983 22.0505C63.1277 22.6176 64.1571 23.1848 65.1804 23.7623C65.2218 23.7857 65.2657 23.8075 65.3101 23.8295L65.3102 23.8295C65.5401 23.9436 65.7829 24.064 65.7636 24.4551C65.7316 25.1094 65.7307 25.7652 65.7297 26.4211C65.7291 26.7802 65.7286 27.1394 65.723 27.4984C65.7107 28.3328 65.6962 29.1672 65.6817 30.0016C65.6648 30.9751 65.6479 31.9486 65.6346 32.9222C65.6293 33.2933 65.5851 33.5726 65.1186 33.3251C64.9198 33.2198 64.721 33.1148 64.5223 33.0097L64.5124 33.0045C63.7639 32.6089 63.0164 32.2138 62.2732 31.8088C61.7534 31.5256 61.2336 31.2427 60.7137 30.9597L60.7132 30.9594C58.2159 29.6001 55.7186 28.2408 53.2335 26.8586C53.0895 26.7781 52.9391 26.7047 52.788 26.6311L52.7879 26.631C52.2326 26.3602 51.6694 26.0855 51.3902 25.4395C51.2612 25.1408 51.0579 24.8704 50.86 24.6071C49.607 22.9405 48.0147 21.8077 45.8621 21.8253C43.66 21.843 41.9917 22.8928 40.9137 24.8156C39.8391 26.7296 39.8091 28.6966 40.8677 30.6088C41.944 32.5528 44.3758 33.6804 46.6061 33.341C47.2865 33.2368 47.921 33.2986 48.5484 33.5513C48.6639 33.5983 48.7692 33.6663 48.8744 33.7342C49.0462 33.845 49.2179 33.9558 49.4338 33.9755C49.2786 33.676 48.8398 33.3694 48.3445 33.1625C48.842 33.3694 49.2833 33.6776 49.4391 33.979H49.4409C50.3422 33.949 50.989 34.4138 51.5457 35.0571L51.5546 35.0624C51.8544 34.967 52.1152 35.1131 52.3485 35.2438L52.3622 35.2515C53.4897 35.8824 54.6049 36.5381 55.7183 37.1955C55.7349 37.2051 55.752 37.2147 55.7692 37.2243C55.8986 37.2966 56.0391 37.3751 56.0752 37.5466L56.0647 37.5472L56.0771 37.556L56.0752 37.5466C56.4982 37.5245 56.8297 37.7299 57.1601 37.9347C57.2562 37.9942 57.3522 38.0536 57.4502 38.1074C59.1804 39.0547 60.9071 40.0108 62.6302 40.9705C62.663 40.9888 62.6975 41.006 62.7323 41.0233C62.89 41.1019 63.054 41.1836 63.1002 41.3878L63.0915 41.3875L63.1021 41.3964L63.1002 41.3878C63.1876 41.3914 63.2503 41.4246 63.2452 41.5289C63.3729 41.6062 63.5004 41.6839 63.628 41.7616C64.3404 42.1956 65.0535 42.63 65.806 42.9958C65.8153 43.0003 65.8246 43.0047 65.8339 43.0092C65.8597 43.0216 65.8857 43.0339 65.9117 43.0463C66.2894 43.2257 66.6771 43.4098 66.7886 43.8865C66.9089 43.9642 66.9735 44.006 67.0084 44.0652C67.0488 44.1339 67.0493 44.2262 67.0502 44.4255C67.0514 44.7042 67.054 44.9828 67.0566 45.2615L67.0566 45.2639C67.0613 45.7762 67.066 46.2885 67.0626 46.8008C67.059 47.4069 67.1686 47.9795 67.4814 48.5044C67.9876 48.7971 68.4955 48.59 68.9348 48.4108L68.9695 48.3966C70.2667 47.8682 71.5497 47.2868 72.7427 46.5498C72.8409 46.489 72.9503 46.4376 73.0612 46.3854L73.0612 46.3854C73.395 46.2285 73.7415 46.0655 73.8331 45.6237C73.826 44.4227 73.8195 43.2216 73.8129 42.0205C73.7948 38.7185 73.7768 35.4165 73.7483 32.1145C73.7402 31.2153 73.746 30.3153 73.7518 29.4152V29.4151V29.4151C73.7664 27.1415 73.7809 24.8676 73.5733 22.6065C73.4496 21.2474 73.0696 19.8265 71.8078 18.9234C71.5522 18.7401 71.3564 18.5076 71.3361 18.1715L71.3394 18.1706L71.3359 18.1688L71.3361 18.1715C71.1047 18.2334 70.9557 18.1535 70.9011 17.9125C70.8216 17.8754 70.7421 17.8365 70.6626 17.7977C70.2685 18.0013 70.1743 17.7568 70.0802 17.5121C70.0608 17.4617 70.0413 17.4112 70.0193 17.3647L70.0392 17.3575C70.0396 17.3576 70.0401 17.3576 70.0405 17.3576C70.0404 17.3575 70.0403 17.3573 70.0402 17.3572L70.044 17.3558C70.0424 17.3558 70.0408 17.3557 70.0392 17.3556C69.9393 17.203 69.7869 17.1278 69.634 17.0523C69.5919 17.0315 69.5497 17.0107 69.5086 16.9882C68.66 16.5215 67.8113 16.0552 66.9625 15.589C64.4915 14.2315 62.0208 12.8742 59.5569 11.5061C58.0412 10.664 56.5312 9.81289 55.0211 8.96168C53.8689 8.31221 52.7166 7.66269 51.5617 7.01715C50.4046 6.37 49.2442 5.72858 48.0839 5.08717C45.7175 3.77906 43.3511 2.47099 41.0127 1.11438C38.4819 -0.356007 36.0183 -0.373681 33.5105 1.0755C33.0245 1.35649 32.5385 1.63704 32.0525 1.91759C31.5665 2.19816 31.0805 2.47873 30.5944 2.75974C29.1873 3.57319 27.7801 4.38631 26.3728 5.19941C23.243 7.00781 20.1134 8.81609 16.9863 10.6277C16.5486 10.8817 16.1088 11.1321 15.6689 11.3825C14.3823 12.1149 13.0956 12.8474 11.8629 13.6693C11.8282 13.6923 11.7903 13.7143 11.7519 13.7367C11.5923 13.8297 11.4224 13.9287 11.4281 14.1252C11.4353 14.3498 11.587 14.3539 11.7402 14.3582C11.8137 14.3602 11.8875 14.3622 11.9459 14.3885C12.1456 14.4787 12.34 14.5847 12.5327 14.6908L12.5398 14.6946C15.7026 16.4253 18.8655 18.1559 22.0284 19.8848C23.0343 20.435 24.0409 20.9839 25.0476 21.5328C27.9089 23.093 30.7705 24.6534 33.6165 26.2418C34.1467 26.5369 34.3429 26.3956 34.6504 25.9944C35.7727 24.5305 36.9123 23.0815 38.0517 21.6328C38.2741 21.35 38.4965 21.0672 38.7187 20.7844L38.7274 20.7733C39.2649 20.0898 39.2694 20.084 38.4837 19.6622C35.1293 17.8613 31.7732 16.0639 28.4171 14.2684C27.811 13.945 27.8074 13.9273 28.3624 13.565C28.4517 13.5064 28.5376 13.4426 28.6234 13.3788C28.7497 13.2849 28.8759 13.1912 29.0127 13.1143C29.7077 12.7225 30.4071 12.3379 31.1064 11.9532C32.7065 11.0733 34.3063 10.1934 35.8522 9.22804C36.9638 8.53173 37.7573 8.48224 38.9361 9.17856C41.7019 10.8094 44.5245 12.3433 47.347 13.8772C48.3173 14.4045 49.2876 14.9318 50.2556 15.4631C51.1255 15.9403 51.988 16.431 52.8505 16.9216C54.4376 17.8245 56.0248 18.7274 57.6588 19.5473ZM66.7598 16.2064C66.6181 16.2856 66.4884 16.4207 66.3716 16.6189C66.2055 16.9016 65.9474 17.066 65.6841 17.2198C65.2547 17.4689 65.0108 17.7552 65.2317 18.2943C65.3401 18.5604 65.2515 18.7313 65.0785 18.7814C65.2538 18.7327 65.3443 18.5604 65.2352 18.2925C65.0143 17.7535 65.2582 17.4672 65.6876 17.218C65.951 17.0642 66.209 16.9016 66.3751 16.6171C66.4911 16.4204 66.6195 16.2859 66.7598 16.2064ZM64.2172 18.7722C64.1205 18.8208 64.023 18.8999 63.908 19.0136C63.7592 19.16 63.5759 19.2967 63.3714 19.4006C63.5773 19.2965 63.7619 19.1591 63.9115 19.0118C64.0251 18.8995 64.1217 18.8209 64.2172 18.7722ZM59.8974 19.3997C59.8574 19.4217 59.8201 19.4511 59.7867 19.4872C59.7006 19.5799 59.6191 19.6437 59.5402 19.6841C59.6202 19.6439 59.7029 19.5795 59.7901 19.4854C59.8227 19.4503 59.8588 19.4215 59.8974 19.3997ZM57.6642 19.5257L57.6642 19.5256C57.7198 19.2849 57.5684 19.1934 57.4109 19.0982C57.2822 19.0204 57.1493 18.9401 57.1217 18.774C57.1205 18.7743 57.1192 18.7746 57.118 18.775C57.1462 18.9406 57.2793 19.0206 57.4085 19.0982C57.5667 19.1932 57.7189 19.2846 57.6642 19.5257ZM41.7584 31.2238C42.095 31.5952 42.4541 31.9145 42.8408 32.1726C42.4521 31.9139 42.0912 31.5933 41.7531 31.2203C42.5364 31.0565 43.0527 31.1125 43.5542 31.4476C43.0543 31.1156 42.5389 31.0606 41.7584 31.2238ZM44.3139 31.883C44.233 31.9363 44.1757 31.9395 44.1215 31.913C44.1746 31.9371 44.231 31.9322 44.3086 31.8795C44.626 31.6659 44.9446 31.4536 45.2633 31.2412C45.7094 30.9439 46.1558 30.6465 46.5991 30.3455C46.8924 30.1458 46.9843 29.8718 46.8235 29.5378C46.8045 29.4982 46.7924 29.4622 46.7863 29.4286C46.7958 29.4646 46.8099 29.502 46.8288 29.5413C46.9896 29.8754 46.8977 30.1493 46.6044 30.349C46.1341 30.6683 45.6611 30.9836 45.188 31.299L45.1874 31.2994C44.8961 31.4936 44.6048 31.6878 44.3139 31.883ZM49.5186 25.8936C49.4981 25.9276 49.4767 25.9611 49.4546 25.9944C49.4746 25.9569 49.4942 25.922 49.5133 25.8901L49.5281 25.8652C49.6129 25.7215 49.684 25.601 49.8582 25.718C49.6897 25.608 49.6201 25.7243 49.536 25.8647L49.5186 25.8936ZM50.4588 25.8088C50.3255 25.9197 50.162 25.9068 50.0171 25.8286C50.1606 25.9047 50.3218 25.9148 50.4535 25.8053C50.6215 25.6659 50.5429 25.5377 50.4636 25.4084C50.4266 25.348 50.3894 25.2874 50.377 25.2253L50.3812 25.2226C50.3927 25.2856 50.4306 25.3474 50.4684 25.4091C50.5482 25.5391 50.6277 25.6687 50.4588 25.8088ZM50.3812 25.2226L50.3811 25.2221L50.377 25.2251L50.376 25.2201C50.583 25.0823 50.733 25.0897 50.8639 25.2219C50.7342 25.0934 50.5855 25.0871 50.3812 25.2226ZM52.2862 26.696C52.0101 26.5307 51.7587 26.3393 51.5381 26.1183C51.7579 26.3378 52.008 26.528 52.2827 26.6925C53.6418 27.5072 55.0418 28.2451 56.442 28.9831L56.4422 28.9832L56.4424 28.9833C57.2379 29.4026 58.0335 29.8219 58.8217 30.2553C59.2699 30.5022 59.7061 30.7718 60.1422 31.0414L60.1422 31.0414C60.5211 31.2756 60.9001 31.5099 61.287 31.7293C61.4633 31.8291 61.6571 31.8982 61.8505 31.9673C62.0508 32.0387 62.2507 32.1101 62.4305 32.2153C63.2568 32.6978 64.1113 33.1185 64.9676 33.54L64.9678 33.5401L65.2776 33.6927C65.3224 33.7147 65.3673 33.7348 65.4122 33.7524C65.3738 33.7396 65.3312 33.7211 65.2811 33.6963L64.9558 33.536C64.1044 33.117 63.2539 32.6985 62.434 32.2188C62.2527 32.1124 62.0521 32.0409 61.8513 31.9694C61.6588 31.9009 61.4662 31.8323 61.2906 31.7328C60.9037 31.5135 60.5248 31.2792 60.1459 31.045L60.1458 31.0449C59.7096 30.7753 59.2735 30.5057 58.8252 30.2589C58.037 29.8254 57.2414 29.4061 56.4459 28.9868L56.4457 28.9867C55.0454 28.2487 53.6453 27.5108 52.2862 26.696ZM66.0393 31.8618L66.0358 31.9221L66.0358 31.8583C66.0354 31.3087 66.0347 30.7592 66.034 30.2098C66.0317 28.3793 66.0294 26.5494 66.0375 24.7184C66.0389 24.4202 66.0222 24.1492 65.8538 23.9353C66.0245 24.1497 66.0424 24.4221 66.0411 24.7219C66.0329 26.553 66.0352 28.383 66.0375 30.2136V30.214C66.0382 30.7632 66.0389 31.3124 66.0393 31.8618Z" fill="#38CB89"/>
</svg>
